<?xml version="1.0" encoding="utf-8"?>
<!-- Generator: Adobe Illustrator 28.0.0, SVG Export Plug-In . SVG Version: 6.00 Build 0)  -->
<svg version="1.1" id="Layer_1" xmlns="http://www.w3.org/2000/svg" xmlns:xlink="http://www.w3.org/1999/xlink" x="0px" y="0px"
	 viewBox="0 0 100 100" style="enable-background:new 0 0 100 100;" xml:space="preserve">
<style type="text/css">
	.st0{fill:#FFFFFF;}
</style>
<g>
	<path class="st0" d="M89.03,31.33c-0.56-0.61-1.15-1.21-1.75-1.79c-3.26-9.45-8.07-15.49-11.81-19.03c-2.42-2.3-5-4.18-7.68-5.58
		c-2.19-1.15-4.35-1.91-6.08-2.15c-3.15-0.43-5.8,0.14-7.67,1.66c-1.81,1.47-2.77,3.71-2.77,6.46v5.5
		c-0.37-0.01-0.74-0.01-1.11-0.01c-0.34,0-0.71,0.01-1.11,0.02v-5.5c0-2.75-0.96-4.99-2.77-6.46c-1.87-1.52-4.52-2.1-7.67-1.66
		c-1.73,0.24-3.89,1-6.08,2.15c-2.68,1.4-5.26,3.28-7.68,5.58c-3.05,2.9-6.82,7.46-9.88,14.18c-3.35,1.81-6.17,3.86-8.4,6.14
		c-4.26,4.34-6.42,9.49-6.42,15.3c0,5.99,2.14,10.69,6.36,13.96c1.05,0.82,2.22,1.53,3.51,2.14c0.11,0.67,0.23,1.35,0.37,2.01
		c1.46,7.21,4.23,13.86,8.46,20.34c2.6,3.97,6.69,7.6,11.22,9.94c3.38,1.75,6.76,2.66,9.67,2.66c1.05,0,2.05-0.12,2.96-0.36
		c2.37-0.63,6.34-2.72,6.34-9.63V70.16c0-0.3,0-0.6,0-0.89v-1.88c0.75,0.18,1.49,0.37,2.21,0.57v1.31c0,0.29,0,0.58,0,0.88V87.2
		c0,6.9,3.97,8.99,6.34,9.63c0.91,0.24,1.91,0.36,2.96,0.36c2.92,0,6.3-0.92,9.67-2.66c4.53-2.35,8.62-5.97,11.22-9.94
		c0.27-0.41,0.53-0.82,0.78-1.22c0.6,0.05,1.23,0.08,1.89,0.08c4.81,0,8.85-2.15,11.67-6.22c2.85-4.11,4.35-10.13,4.35-17.42
		C100.17,49.42,96.11,39.04,89.03,31.33z M53.55,18.61c1.23,0.06,2.44,0.14,3.63,0.26c-0.37,0.19-0.73,0.41-1.07,0.65
		c-0.85,0.61-1.76,1.48-2.56,2.74V18.61z M53.55,68.93c0-0.03,0-0.06,0-0.1c0-0.06,0-0.12,0-0.18c0.54,0.17,1.06,0.35,1.58,0.54
		c6.74,2.42,10.78,5.48,14.34,8.18c0.93,0.71,1.84,1.39,2.75,2.03c-3.05,1.25-6.44,1.88-10.14,1.88c-2.68,0-4.64-0.62-6-1.91
		c-2.2-2.09-2.51-5.67-2.53-8.92V68.93z M70.9,75.69c-3.99-3.02-8.8-6.66-17.35-9.29V31.69c0-5.01,1.36-8.62,3.93-10.45
		c1.3-0.93,2.94-1.4,4.77-1.4c1.02,0,2.11,0.15,3.23,0.45c8.78,2.35,14.86,6.35,18.57,12.24c3.23,5.13,4.74,11.66,4.74,20.54
		c0,2.22-0.91,9.45-5.04,16.21c-2.19,3.57-4.92,6.4-8.12,8.4c-0.37,0.23-0.74,0.44-1.12,0.65C73.35,77.54,72.18,76.66,70.9,75.69z
		 M85.73,70.34c0.18-0.3,0.36-0.59,0.53-0.89c-1.26,3.99-2.99,7.83-5.21,11.59c-1.63-0.28-3.04-0.79-4.38-1.47
		C80.25,77.39,83.3,74.3,85.73,70.34z M53.55,10.9c0-2.11,0.68-3.79,1.98-4.84c1.04-0.85,2.48-1.28,4.22-1.28
		c0.52,0,1.07,0.04,1.64,0.12c2.69,0.37,7.57,2.46,12.48,7.12c3.03,2.88,6.81,7.49,9.79,14.4c-3.04-2.33-6.42-4.27-10.13-5.8
		c-5.9-2.44-12.61-3.83-19.97-4.15V10.9z M26.48,12.02c4.91-4.66,9.79-6.75,12.48-7.12c0.57-0.08,1.12-0.12,1.64-0.12
		c1.73,0,3.17,0.43,4.22,1.28c1.29,1.05,1.98,2.73,1.98,4.84v5.61c-6.16,0.38-16.32,1.78-25.53,5.32c-1.03,0.4-2.02,0.81-2.98,1.24
		C20.94,17.98,23.97,14.4,26.48,12.02z M46.79,64.71c-5.88-1.16-13.15-1.88-22.33-1.88c-4.47,0-8.31-0.58-11.48-1.72
		c-1.11-3.68-1.43-6.74-1.43-8.05c0-7.65,1.6-14.22,4.76-19.52c3.89-6.55,10.14-11.01,18.56-13.26c1.12-0.3,2.21-0.45,3.23-0.45
		c1.83,0,3.46,0.47,4.77,1.4c2.57,1.83,3.93,5.45,3.93,10.45V64.71z M14.65,31.96c0.64-2.08,1.36-3.99,2.13-5.76
		c1.65-0.85,3.43-1.65,5.34-2.38c0.05-0.02,0.11-0.04,0.16-0.06C19.21,25.99,16.66,28.73,14.65,31.96z M24.46,64.97
		c8.63,0,16.01,0.63,22.33,1.92v1.05c0,0.29,0,0.59,0,0.89c0,0.03,0,0.06,0,0.09v1.53c-0.03,3.25-0.33,6.83-2.53,8.92
		c-1.36,1.28-3.32,1.91-6,1.91c-5.15,0-9.7-1.21-13.55-3.61c-3.2-2-5.94-4.82-8.12-8.4c-1.15-1.88-2.05-3.79-2.75-5.62
		C16.92,64.53,20.46,64.97,24.46,64.97z M46.79,22.27c-0.8-1.26-1.71-2.14-2.56-2.74c-0.29-0.21-0.6-0.4-0.92-0.57
		c1.26-0.13,2.43-0.23,3.48-0.3V22.27z M7.98,58.43c-3.67-2.84-5.53-6.98-5.53-12.3c0-5.25,1.96-9.91,5.81-13.84
		c1.5-1.53,3.29-2.95,5.35-4.26c-0.79,2.08-1.5,4.34-2.1,6.79c-2.14,8.65-2.75,16.96-1.84,24.75C9.07,59.22,8.5,58.84,7.98,58.43z
		 M46.79,87.2c0,4.19-1.58,6.73-4.69,7.56c-2.86,0.76-6.84-0.01-10.92-2.12c-4.2-2.17-7.98-5.52-10.38-9.19
		c-2.96-4.53-5.18-9.16-6.71-14.01c0.17,0.3,0.34,0.6,0.53,0.89c5.24,8.56,13.41,13.08,23.64,13.08c3.27,0,5.83-0.85,7.61-2.54
		c0.34-0.33,0.65-0.68,0.92-1.05V87.2z M49.07,65.2V18.55c0.4-0.01,0.77-0.02,1.11-0.02c0.37,0,0.74,0.01,1.11,0.01v47.2
		C50.57,65.55,49.83,65.37,49.07,65.2z M79.54,83.45c-2.4,3.67-6.18,7.02-10.38,9.19c-4.08,2.11-8.05,2.88-10.92,2.12
		c-3.11-0.83-4.69-3.37-4.69-7.56v-7.37c0.27,0.37,0.58,0.72,0.92,1.05c1.78,1.69,4.34,2.54,7.61,2.54c4.53,0,8.66-0.89,12.31-2.62
		c1.64,0.96,3.4,1.73,5.45,2.19C79.74,83.14,79.64,83.3,79.54,83.45z M93.92,76.04c-2.38,3.43-5.76,5.25-9.77,5.25
		c-0.22,0-0.44,0-0.66-0.01c3.11-5.44,5.23-11.05,6.44-17.04c1.85-9.12,1.48-19.01-1.09-29.42c-0.04-0.15-0.08-0.3-0.12-0.45
		c5.85,7.13,9.17,16.28,9.17,25.43C97.9,66.67,96.52,72.29,93.92,76.04z"/>
</g>
</svg>
